<?xml version="1.0" encoding="UTF-8"?>
<svg fill="#AC3051" xmlns="http://www.w3.org/2000/svg" id="Icons" viewBox="0 0 74 74" width="25" height="25"><path d="M37,64.323a1,1,0,0,1-.784-.38c-.848-1.072-20.765-26.416-20.765-40.394a21.549,21.549,0,0,1,43.1,0c0,13.978-19.917,39.322-20.765,40.394A1,1,0,0,1,37,64.323ZM37,4A19.572,19.572,0,0,0,17.451,23.549c0,11.778,15.81,33.229,19.549,38.137,3.739-4.909,19.549-26.363,19.549-38.137A19.572,19.572,0,0,0,37,4Z"/><path d="M37,38.25A14.625,14.625,0,1,1,51.625,23.625,14.642,14.642,0,0,1,37,38.25ZM37,11A12.625,12.625,0,1,0,49.625,23.625,12.64,12.64,0,0,0,37,11Z"/><path d="M45.19,72H42.26a1,1,0,1,1,0-2h2.93a1,1,0,0,1,0,2Z"/><path d="M25.32,72H15.06a1,1,0,0,1-.986-1.165l3.29-19.74a1,1,0,0,1,.986-.835H28.42a1,1,0,1,1,0,2H19.2L16.241,70H25.32a1,1,0,0,1,0,2Z"/><path d="M35.26,72H32.32a1,1,0,1,1,0-2h2.94a1,1,0,0,1,0,2Z"/><path d="M58.94,72H52.2a1,1,0,0,1,0-2h5.559L54.8,52.26H45.58a1,1,0,0,1,0-2H55.65a1,1,0,0,1,.986.835l3.29,19.74A1,1,0,0,1,58.94,72Z"/></svg>
